<mxfile host="app.diagrams.net" modified="2021-04-17T08:27:29.161Z" agent="5.0 (Windows NT 10.0; WOW64) AppleWebKit/537.36 (KHTML, like Gecko) Chrome/89.0.4389.128 Safari/537.36" etag="JMOKFktQAXpx4YWRAOOe" version="14.6.1" type="github">
  <diagram id="2BROPETgk_qW8xVXBbcQ" name="Page-1">
    <mxGraphModel dx="1117" dy="679" grid="1" gridSize="10" guides="1" tooltips="1" connect="1" arrows="1" fold="1" page="1" pageScale="1" pageWidth="850" pageHeight="1100" math="0" shadow="0">
      <root>
        <mxCell id="0" />
        <mxCell id="1" parent="0" />
        <mxCell id="3y4XF3m-sja9ThL-DiA0-1" value="&lt;font style=&quot;font-size: 15px&quot;&gt;进入GPS任务&lt;/font&gt;" style="strokeWidth=2;html=1;shape=mxgraph.flowchart.start_1;whiteSpace=wrap;" vertex="1" parent="1">
          <mxGeometry x="320" y="150" width="100" height="60" as="geometry" />
        </mxCell>
        <mxCell id="3y4XF3m-sja9ThL-DiA0-2" value="&lt;font style=&quot;font-size: 15px&quot;&gt;设置GPS模块模式&lt;/font&gt;" style="rounded=1;whiteSpace=wrap;html=1;absoluteArcSize=1;arcSize=14;strokeWidth=2;" vertex="1" parent="1">
          <mxGeometry x="320" y="230" width="100" height="40" as="geometry" />
        </mxCell>
        <mxCell id="3y4XF3m-sja9ThL-DiA0-4" value="" style="endArrow=none;html=1;exitX=0.5;exitY=0;exitDx=0;exitDy=0;" edge="1" parent="1" source="3y4XF3m-sja9ThL-DiA0-2">
          <mxGeometry width="50" height="50" relative="1" as="geometry">
            <mxPoint x="320" y="240" as="sourcePoint" />
            <mxPoint x="370" y="210" as="targetPoint" />
          </mxGeometry>
        </mxCell>
        <mxCell id="3y4XF3m-sja9ThL-DiA0-6" value="" style="endArrow=none;html=1;entryX=0.5;entryY=1;entryDx=0;entryDy=0;" edge="1" parent="1" target="3y4XF3m-sja9ThL-DiA0-2">
          <mxGeometry width="50" height="50" relative="1" as="geometry">
            <mxPoint x="370" y="290" as="sourcePoint" />
            <mxPoint x="420" y="250" as="targetPoint" />
          </mxGeometry>
        </mxCell>
        <mxCell id="3y4XF3m-sja9ThL-DiA0-14" value="&lt;font style=&quot;font-size: 15px&quot;&gt;开启OS任务调度&lt;/font&gt;" style="rounded=1;whiteSpace=wrap;html=1;absoluteArcSize=1;arcSize=14;strokeWidth=2;" vertex="1" parent="1">
          <mxGeometry x="650" y="410" width="100" height="40" as="geometry" />
        </mxCell>
        <mxCell id="3y4XF3m-sja9ThL-DiA0-48" value="" style="endArrow=classic;html=1;endSize=6;exitX=0.5;exitY=1;exitDx=0;exitDy=0;" edge="1" parent="1">
          <mxGeometry width="50" height="50" relative="1" as="geometry">
            <mxPoint x="369.76" y="330" as="sourcePoint" />
            <mxPoint x="370" y="360" as="targetPoint" />
          </mxGeometry>
        </mxCell>
        <mxCell id="3y4XF3m-sja9ThL-DiA0-49" value="" style="endArrow=classic;html=1;endSize=6;exitX=0.5;exitY=1;exitDx=0;exitDy=0;exitPerimeter=0;entryX=0.5;entryY=0;entryDx=0;entryDy=0;" edge="1" parent="1" source="3y4XF3m-sja9ThL-DiA0-1" target="3y4XF3m-sja9ThL-DiA0-2">
          <mxGeometry width="50" height="50" relative="1" as="geometry">
            <mxPoint x="270" y="290" as="sourcePoint" />
            <mxPoint x="320" y="240" as="targetPoint" />
          </mxGeometry>
        </mxCell>
        <mxCell id="3y4XF3m-sja9ThL-DiA0-50" value="" style="endArrow=classic;html=1;endSize=6;exitX=0.5;exitY=1;exitDx=0;exitDy=0;" edge="1" parent="1" source="3y4XF3m-sja9ThL-DiA0-2">
          <mxGeometry width="50" height="50" relative="1" as="geometry">
            <mxPoint x="279.9999999999999" y="300" as="sourcePoint" />
            <mxPoint x="370" y="290" as="targetPoint" />
          </mxGeometry>
        </mxCell>
        <mxCell id="3y4XF3m-sja9ThL-DiA0-63" value="是" style="text;html=1;align=center;verticalAlign=middle;resizable=0;points=[];autosize=1;strokeColor=none;" vertex="1" parent="1">
          <mxGeometry x="365" y="330" width="30" height="20" as="geometry" />
        </mxCell>
        <mxCell id="3y4XF3m-sja9ThL-DiA0-65" value="否" style="text;html=1;align=center;verticalAlign=middle;resizable=0;points=[];autosize=1;strokeColor=none;" vertex="1" parent="1">
          <mxGeometry x="425" y="290" width="30" height="20" as="geometry" />
        </mxCell>
        <mxCell id="3y4XF3m-sja9ThL-DiA0-84" value="" style="edgeStyle=orthogonalEdgeStyle;rounded=0;orthogonalLoop=1;jettySize=auto;html=1;endSize=6;" edge="1" parent="1" source="3y4XF3m-sja9ThL-DiA0-66" target="3y4XF3m-sja9ThL-DiA0-68">
          <mxGeometry relative="1" as="geometry" />
        </mxCell>
        <mxCell id="3y4XF3m-sja9ThL-DiA0-66" value="是否设置成功" style="strokeWidth=2;html=1;shape=mxgraph.flowchart.decision;whiteSpace=wrap;" vertex="1" parent="1">
          <mxGeometry x="320" y="290" width="100" height="40" as="geometry" />
        </mxCell>
        <mxCell id="3y4XF3m-sja9ThL-DiA0-67" style="edgeStyle=orthogonalEdgeStyle;rounded=0;orthogonalLoop=1;jettySize=auto;html=1;exitX=0.5;exitY=1;exitDx=0;exitDy=0;exitPerimeter=0;endSize=6;" edge="1" parent="1" source="3y4XF3m-sja9ThL-DiA0-66" target="3y4XF3m-sja9ThL-DiA0-66">
          <mxGeometry relative="1" as="geometry" />
        </mxCell>
        <mxCell id="3y4XF3m-sja9ThL-DiA0-89" style="edgeStyle=orthogonalEdgeStyle;rounded=0;orthogonalLoop=1;jettySize=auto;html=1;entryX=0.5;entryY=0;entryDx=0;entryDy=0;endSize=6;" edge="1" parent="1" source="3y4XF3m-sja9ThL-DiA0-68" target="3y4XF3m-sja9ThL-DiA0-14">
          <mxGeometry relative="1" as="geometry" />
        </mxCell>
        <mxCell id="3y4XF3m-sja9ThL-DiA0-68" value="设置相应标志位" style="rounded=1;whiteSpace=wrap;html=1;absoluteArcSize=1;arcSize=14;strokeWidth=2;" vertex="1" parent="1">
          <mxGeometry x="480" y="290" width="90" height="40" as="geometry" />
        </mxCell>
        <mxCell id="3y4XF3m-sja9ThL-DiA0-72" value="" style="edgeStyle=orthogonalEdgeStyle;rounded=0;orthogonalLoop=1;jettySize=auto;html=1;endSize=6;" edge="1" parent="1" source="3y4XF3m-sja9ThL-DiA0-70" target="3y4XF3m-sja9ThL-DiA0-71">
          <mxGeometry relative="1" as="geometry" />
        </mxCell>
        <mxCell id="3y4XF3m-sja9ThL-DiA0-70" value="采集位置信息" style="rounded=1;whiteSpace=wrap;html=1;absoluteArcSize=1;arcSize=14;strokeWidth=2;" vertex="1" parent="1">
          <mxGeometry x="320" y="360" width="100" height="40" as="geometry" />
        </mxCell>
        <mxCell id="3y4XF3m-sja9ThL-DiA0-74" value="" style="edgeStyle=orthogonalEdgeStyle;rounded=0;orthogonalLoop=1;jettySize=auto;html=1;endSize=6;" edge="1" parent="1" source="3y4XF3m-sja9ThL-DiA0-71" target="3y4XF3m-sja9ThL-DiA0-73">
          <mxGeometry relative="1" as="geometry" />
        </mxCell>
        <mxCell id="3y4XF3m-sja9ThL-DiA0-71" value="解析位置信息" style="rounded=1;whiteSpace=wrap;html=1;absoluteArcSize=1;arcSize=14;strokeWidth=2;" vertex="1" parent="1">
          <mxGeometry x="320" y="430" width="100" height="40" as="geometry" />
        </mxCell>
        <mxCell id="3y4XF3m-sja9ThL-DiA0-78" value="" style="edgeStyle=orthogonalEdgeStyle;rounded=0;orthogonalLoop=1;jettySize=auto;html=1;endSize=6;" edge="1" parent="1" source="3y4XF3m-sja9ThL-DiA0-73" target="3y4XF3m-sja9ThL-DiA0-77">
          <mxGeometry relative="1" as="geometry" />
        </mxCell>
        <mxCell id="3y4XF3m-sja9ThL-DiA0-81" style="edgeStyle=orthogonalEdgeStyle;rounded=0;orthogonalLoop=1;jettySize=auto;html=1;entryX=0.445;entryY=-0.039;entryDx=0;entryDy=0;entryPerimeter=0;endSize=6;" edge="1" parent="1" source="3y4XF3m-sja9ThL-DiA0-73" target="3y4XF3m-sja9ThL-DiA0-75">
          <mxGeometry relative="1" as="geometry" />
        </mxCell>
        <mxCell id="3y4XF3m-sja9ThL-DiA0-73" value="位置信息&lt;br&gt;是否有效" style="strokeWidth=2;html=1;shape=mxgraph.flowchart.decision;whiteSpace=wrap;" vertex="1" parent="1">
          <mxGeometry x="320" y="500" width="100" height="70" as="geometry" />
        </mxCell>
        <mxCell id="3y4XF3m-sja9ThL-DiA0-91" value="" style="edgeStyle=orthogonalEdgeStyle;rounded=0;orthogonalLoop=1;jettySize=auto;html=1;endSize=6;" edge="1" parent="1" source="3y4XF3m-sja9ThL-DiA0-75" target="3y4XF3m-sja9ThL-DiA0-90">
          <mxGeometry relative="1" as="geometry" />
        </mxCell>
        <mxCell id="3y4XF3m-sja9ThL-DiA0-75" value="保存位置信息" style="rounded=1;whiteSpace=wrap;html=1;absoluteArcSize=1;arcSize=14;strokeWidth=2;" vertex="1" parent="1">
          <mxGeometry x="325" y="620" width="100" height="40" as="geometry" />
        </mxCell>
        <mxCell id="3y4XF3m-sja9ThL-DiA0-88" style="edgeStyle=orthogonalEdgeStyle;rounded=0;orthogonalLoop=1;jettySize=auto;html=1;endSize=6;" edge="1" parent="1" source="3y4XF3m-sja9ThL-DiA0-77">
          <mxGeometry relative="1" as="geometry">
            <mxPoint x="700" y="535" as="targetPoint" />
          </mxGeometry>
        </mxCell>
        <mxCell id="3y4XF3m-sja9ThL-DiA0-77" value="设置相应标志位" style="rounded=1;whiteSpace=wrap;html=1;absoluteArcSize=1;arcSize=14;strokeWidth=2;" vertex="1" parent="1">
          <mxGeometry x="480" y="515" width="90" height="40" as="geometry" />
        </mxCell>
        <mxCell id="3y4XF3m-sja9ThL-DiA0-85" value="是" style="text;html=1;align=center;verticalAlign=middle;resizable=0;points=[];autosize=1;strokeColor=none;" vertex="1" parent="1">
          <mxGeometry x="375" y="580" width="30" height="20" as="geometry" />
        </mxCell>
        <mxCell id="3y4XF3m-sja9ThL-DiA0-86" value="否" style="text;html=1;align=center;verticalAlign=middle;resizable=0;points=[];autosize=1;strokeColor=none;" vertex="1" parent="1">
          <mxGeometry x="440" y="510" width="30" height="20" as="geometry" />
        </mxCell>
        <mxCell id="3y4XF3m-sja9ThL-DiA0-92" style="edgeStyle=orthogonalEdgeStyle;rounded=0;orthogonalLoop=1;jettySize=auto;html=1;endSize=6;entryX=0.5;entryY=1;entryDx=0;entryDy=0;" edge="1" parent="1" source="3y4XF3m-sja9ThL-DiA0-90" target="3y4XF3m-sja9ThL-DiA0-14">
          <mxGeometry relative="1" as="geometry">
            <mxPoint x="700" y="460" as="targetPoint" />
          </mxGeometry>
        </mxCell>
        <mxCell id="3y4XF3m-sja9ThL-DiA0-90" value="&lt;font style=&quot;font-size: 15px&quot;&gt;设置GPS模块模式&lt;/font&gt;" style="rounded=1;whiteSpace=wrap;html=1;absoluteArcSize=1;arcSize=14;strokeWidth=2;" vertex="1" parent="1">
          <mxGeometry x="475" y="620" width="100" height="40" as="geometry" />
        </mxCell>
      </root>
    </mxGraphModel>
  </diagram>
</mxfile>
